<svg width="531" height="130" viewBox="0 0 531 130" fill="none" xmlns="http://www.w3.org/2000/svg">
<g clip-path="url(#clip0_2_3)">
<rect width="531" height="130" fill="#313131"/>
<path d="M575 0V73L0 0H575Z" fill="#634A28"/>
<path d="M575 0V65L0 0H575Z" fill="#F8A800"/>
<path d="M27.5 117H22.1136V99.5455H27.7386C29.4318 99.5455 30.8807 99.8949 32.0852 100.594C33.2898 101.287 34.2131 102.284 34.8551 103.585C35.4972 104.881 35.8182 106.432 35.8182 108.239C35.8182 110.057 35.4943 111.622 34.8466 112.935C34.1989 114.241 33.2557 115.247 32.017 115.952C30.7784 116.651 29.2727 117 27.5 117ZM24.2273 115.125H27.3636C28.8068 115.125 30.0028 114.847 30.9517 114.29C31.9006 113.733 32.608 112.94 33.0739 111.912C33.5398 110.884 33.7727 109.659 33.7727 108.239C33.7727 106.83 33.5426 105.616 33.0824 104.599C32.6222 103.577 31.9347 102.793 31.0199 102.247C30.1051 101.696 28.9659 101.42 27.6023 101.42H24.2273V115.125ZM39.3636 117V99.5455H49.8977V101.42H41.4773V107.318H49.3523V109.193H41.4773V115.125H50.0341V117H39.3636ZM43.6932 97.7727L45.7727 93.8182H48.125L45.4659 97.7727H43.6932ZM53.7074 117V99.5455H59.6051C60.9744 99.5455 62.0938 99.7926 62.9631 100.287C63.8381 100.776 64.4858 101.438 64.9062 102.273C65.3267 103.108 65.5369 104.04 65.5369 105.068C65.5369 106.097 65.3267 107.031 64.9062 107.872C64.4915 108.713 63.8494 109.384 62.9801 109.884C62.1108 110.378 60.9972 110.625 59.6392 110.625H55.4119V108.75H59.571C60.5085 108.75 61.2614 108.588 61.8295 108.264C62.3977 107.94 62.8097 107.503 63.0653 106.952C63.3267 106.395 63.4574 105.767 63.4574 105.068C63.4574 104.369 63.3267 103.744 63.0653 103.193C62.8097 102.642 62.3949 102.21 61.821 101.898C61.2472 101.58 60.4858 101.42 59.5369 101.42H55.821V117H53.7074ZM67.8764 117H65.6605L72.0696 99.5455H74.2514L80.6605 117H78.4446L73.2287 102.307H73.0923L67.8764 117ZM68.6946 110.182H77.6264V112.057H68.6946V110.182ZM97.2202 99.5455V117H95.1747L85.6634 103.295H85.4929V117H83.3793V99.5455H85.4247L94.9702 113.284H95.1406V99.5455H97.2202ZM115.29 99.5455V117H113.245L103.734 103.295H103.563V117H101.45V99.5455H103.495L113.04 113.284H113.211V99.5455H115.29ZM120.236 117H118.02L124.429 99.5455H126.611L133.02 117H130.804L125.588 102.307H125.452L120.236 117ZM121.054 110.182H129.986V112.057H121.054V110.182ZM146.85 105C146.663 104.426 146.415 103.912 146.109 103.457C145.808 102.997 145.447 102.605 145.026 102.281C144.612 101.957 144.14 101.71 143.612 101.54C143.083 101.369 142.504 101.284 141.873 101.284C140.839 101.284 139.898 101.551 139.052 102.085C138.205 102.619 137.532 103.406 137.032 104.446C136.532 105.486 136.282 106.761 136.282 108.273C136.282 109.784 136.535 111.06 137.04 112.099C137.546 113.139 138.231 113.926 139.094 114.46C139.958 114.994 140.93 115.261 142.009 115.261C143.009 115.261 143.89 115.048 144.651 114.622C145.418 114.19 146.015 113.582 146.441 112.798C146.873 112.009 147.089 111.08 147.089 110.011L147.737 110.148H142.487V108.273H149.134V110.148C149.134 111.585 148.827 112.835 148.214 113.898C147.606 114.96 146.765 115.784 145.691 116.369C144.623 116.949 143.396 117.239 142.009 117.239C140.464 117.239 139.106 116.875 137.935 116.148C136.771 115.42 135.862 114.386 135.208 113.045C134.56 111.705 134.237 110.114 134.237 108.273C134.237 106.892 134.421 105.651 134.79 104.548C135.165 103.44 135.694 102.497 136.376 101.719C137.058 100.94 137.864 100.344 138.796 99.929C139.728 99.5142 140.754 99.3068 141.873 99.3068C142.793 99.3068 143.651 99.446 144.447 99.7244C145.248 99.9972 145.961 100.386 146.586 100.892C147.217 101.392 147.742 101.991 148.163 102.69C148.583 103.384 148.873 104.153 149.032 105H146.85ZM152.754 117V99.5455H163.288V101.42H154.868V107.318H162.743V109.193H154.868V115.125H163.425V117H152.754ZM175.962 99.5455V117H173.848V99.5455H175.962ZM194.04 99.5455V117H191.995L182.484 103.295H182.313V117H180.2V99.5455H182.245L191.79 113.284H191.961V99.5455H194.04ZM198.27 117V99.5455H208.736V101.42H200.384V107.318H207.952V109.193H200.384V117H198.27ZM227.083 108.273C227.083 110.114 226.751 111.705 226.086 113.045C225.421 114.386 224.509 115.42 223.35 116.148C222.191 116.875 220.867 117.239 219.379 117.239C217.89 117.239 216.566 116.875 215.407 116.148C214.248 115.42 213.336 114.386 212.671 113.045C212.006 111.705 211.674 110.114 211.674 108.273C211.674 106.432 212.006 104.841 212.671 103.5C213.336 102.159 214.248 101.125 215.407 100.398C216.566 99.6705 217.89 99.3068 219.379 99.3068C220.867 99.3068 222.191 99.6705 223.35 100.398C224.509 101.125 225.421 102.159 226.086 103.5C226.751 104.841 227.083 106.432 227.083 108.273ZM225.038 108.273C225.038 106.761 224.785 105.486 224.279 104.446C223.779 103.406 223.1 102.619 222.242 102.085C221.39 101.551 220.435 101.284 219.379 101.284C218.322 101.284 217.364 101.551 216.506 102.085C215.654 102.619 214.975 103.406 214.469 104.446C213.969 105.486 213.719 106.761 213.719 108.273C213.719 109.784 213.969 111.06 214.469 112.099C214.975 113.139 215.654 113.926 216.506 114.46C217.364 114.994 218.322 115.261 219.379 115.261C220.435 115.261 221.39 114.994 222.242 114.46C223.1 113.926 223.779 113.139 224.279 112.099C224.785 111.06 225.038 109.784 225.038 108.273ZM230.637 117V99.5455H236.535C237.898 99.5455 239.018 99.7784 239.893 100.244C240.768 100.705 241.415 101.338 241.836 102.145C242.256 102.952 242.467 103.869 242.467 104.898C242.467 105.926 242.256 106.838 241.836 107.634C241.415 108.429 240.771 109.054 239.901 109.509C239.032 109.957 237.921 110.182 236.569 110.182H231.796V108.273H236.501C237.433 108.273 238.183 108.136 238.751 107.864C239.325 107.591 239.739 107.205 239.995 106.705C240.256 106.199 240.387 105.597 240.387 104.898C240.387 104.199 240.256 103.588 239.995 103.065C239.734 102.543 239.316 102.139 238.742 101.855C238.168 101.565 237.41 101.42 236.467 101.42H232.751V117H230.637ZM238.853 109.159L243.148 117H240.694L236.467 109.159H238.853ZM245.989 99.5455H248.511L254.443 114.034H254.648L260.58 99.5455H263.102V117H261.125V103.739H260.955L255.5 117H253.591L248.136 103.739H247.966V117H245.989V99.5455ZM268.056 117H265.84L272.249 99.5455H274.431L280.84 117H278.624L273.408 102.307H273.272L268.056 117ZM268.874 110.182H277.806V112.057H268.874V110.182ZM280.565 101.42V99.5455H293.656V101.42H288.168V117H286.054V101.42H280.565ZM299.032 99.5455V117H296.918V99.5455H299.032ZM309.611 111.545H311.929L313.872 114.102L314.384 114.784L317.281 118.636H314.963L313.054 116.08L312.577 115.432L309.611 111.545ZM317.997 108.273C317.997 110.114 317.665 111.705 317 113.045C316.335 114.386 315.423 115.42 314.264 116.148C313.105 116.875 311.781 117.239 310.293 117.239C308.804 117.239 307.48 116.875 306.321 116.148C305.162 115.42 304.25 114.386 303.585 113.045C302.92 111.705 302.588 110.114 302.588 108.273C302.588 106.432 302.92 104.841 303.585 103.5C304.25 102.159 305.162 101.125 306.321 100.398C307.48 99.6705 308.804 99.3068 310.293 99.3068C311.781 99.3068 313.105 99.6705 314.264 100.398C315.423 101.125 316.335 102.159 317 103.5C317.665 104.841 317.997 106.432 317.997 108.273ZM315.952 108.273C315.952 106.761 315.699 105.486 315.193 104.446C314.693 103.406 314.014 102.619 313.156 102.085C312.304 101.551 311.349 101.284 310.293 101.284C309.236 101.284 308.278 101.551 307.42 102.085C306.568 102.619 305.889 103.406 305.384 104.446C304.884 105.486 304.634 106.761 304.634 108.273C304.634 109.784 304.884 111.06 305.384 112.099C305.889 113.139 306.568 113.926 307.42 114.46C308.278 114.994 309.236 115.261 310.293 115.261C311.349 115.261 312.304 114.994 313.156 114.46C314.014 113.926 314.693 113.139 315.193 112.099C315.699 111.06 315.952 109.784 315.952 108.273ZM333.006 99.5455H335.119V111.102C335.119 112.295 334.838 113.361 334.276 114.298C333.719 115.23 332.932 115.966 331.915 116.506C330.898 117.04 329.705 117.307 328.335 117.307C326.966 117.307 325.773 117.04 324.756 116.506C323.739 115.966 322.949 115.23 322.386 114.298C321.83 113.361 321.551 112.295 321.551 111.102V99.5455H323.665V110.932C323.665 111.784 323.852 112.543 324.227 113.207C324.602 113.866 325.136 114.386 325.83 114.767C326.528 115.142 327.364 115.33 328.335 115.33C329.307 115.33 330.142 115.142 330.841 114.767C331.54 114.386 332.074 113.866 332.443 113.207C332.818 112.543 333.006 111.784 333.006 110.932V99.5455ZM339.34 117V99.5455H349.874V101.42H341.454V107.318H349.329V109.193H341.454V115.125H350.011V117H339.34Z" fill="white"/>
<path d="M31.6818 15.1818L48.5568 68.2273H49.2045L66.1136 15.1818H82.4773L58.4091 85H39.3864L15.2841 15.1818H31.6818ZM90.8807 85V15.1818H118.835C123.972 15.1818 128.256 15.9432 131.688 17.4659C135.119 18.9886 137.699 21.1023 139.426 23.8068C141.153 26.4886 142.017 29.5795 142.017 33.0795C142.017 35.8068 141.472 38.2045 140.381 40.2727C139.29 42.3182 137.79 44 135.881 45.3182C133.994 46.6136 131.835 47.5341 129.403 48.0795V48.7614C132.063 48.875 134.551 49.625 136.869 51.0114C139.21 52.3977 141.108 54.3409 142.562 56.8409C144.017 59.3182 144.744 62.2727 144.744 65.7045C144.744 69.4091 143.824 72.7159 141.983 75.625C140.165 78.5114 137.472 80.7955 133.903 82.4773C130.335 84.1591 125.938 85 120.71 85H90.8807ZM105.642 72.9318H117.676C121.79 72.9318 124.79 72.1477 126.676 70.5795C128.563 68.9886 129.506 66.875 129.506 64.2386C129.506 62.3068 129.04 60.6023 128.108 59.125C127.176 57.6477 125.847 56.4886 124.119 55.6477C122.415 54.8068 120.381 54.3864 118.017 54.3864H105.642V72.9318ZM105.642 44.3977H116.585C118.608 44.3977 120.403 44.0455 121.972 43.3409C123.563 42.6136 124.813 41.5909 125.722 40.2727C126.653 38.9545 127.119 37.375 127.119 35.5341C127.119 33.0114 126.222 30.9773 124.426 29.4318C122.653 27.8864 120.131 27.1136 116.858 27.1136H105.642V44.3977ZM154.349 85V15.1818H169.111V72.8295H199.043V85H154.349ZM231.037 85V15.1818H258.582C263.878 15.1818 268.389 16.1932 272.116 18.2159C275.844 20.2159 278.685 23 280.639 26.5682C282.616 30.1136 283.605 34.2045 283.605 38.8409C283.605 43.4773 282.605 47.5682 280.605 51.1136C278.605 54.6591 275.707 57.4205 271.912 59.3977C268.139 61.375 263.571 62.3636 258.207 62.3636H240.651V50.5341H255.821C258.662 50.5341 261.003 50.0455 262.844 49.0682C264.707 48.0682 266.094 46.6932 267.003 44.9432C267.935 43.1705 268.401 41.1364 268.401 38.8409C268.401 36.5227 267.935 34.5 267.003 32.7727C266.094 31.0227 264.707 29.6705 262.844 28.7159C260.98 27.7386 258.616 27.25 255.753 27.25H245.798V85H231.037ZM354.795 39.625H339.864C339.591 37.6932 339.034 35.9773 338.193 34.4773C337.352 32.9545 336.273 31.6591 334.955 30.5909C333.636 29.5227 332.114 28.7045 330.386 28.1364C328.682 27.5682 326.83 27.2841 324.83 27.2841C321.216 27.2841 318.068 28.1818 315.386 29.9773C312.705 31.75 310.625 34.3409 309.148 37.75C307.67 41.1364 306.932 45.25 306.932 50.0909C306.932 55.0682 307.67 59.25 309.148 62.6364C310.648 66.0227 312.739 68.5795 315.42 70.3068C318.102 72.0341 321.205 72.8977 324.727 72.8977C326.705 72.8977 328.534 72.6364 330.216 72.1136C331.92 71.5909 333.432 70.8295 334.75 69.8295C336.068 68.8068 337.159 67.5682 338.023 66.1136C338.909 64.6591 339.523 63 339.864 61.1364L354.795 61.2045C354.409 64.4091 353.443 67.5 351.898 70.4773C350.375 73.4318 348.318 76.0795 345.727 78.4205C343.159 80.7386 340.091 82.5795 336.523 83.9432C332.977 85.2841 328.966 85.9545 324.489 85.9545C318.261 85.9545 312.693 84.5455 307.784 81.7273C302.898 78.9091 299.034 74.8295 296.193 69.4886C293.375 64.1477 291.966 57.6818 291.966 50.0909C291.966 42.4773 293.398 36 296.261 30.6591C299.125 25.3182 303.011 21.25 307.92 18.4545C312.83 15.6364 318.352 14.2273 324.489 14.2273C328.534 14.2273 332.284 14.7955 335.739 15.9318C339.216 17.0682 342.295 18.7273 344.977 20.9091C347.659 23.0682 349.841 25.7159 351.523 28.8523C353.227 31.9886 354.318 35.5795 354.795 39.625Z" fill="#FEFEFE"/>
<g clip-path="url(#clip1_2_3)">
<path d="M374 117V104.176H397.833V97.7647C394.556 97.7647 391.751 96.5091 389.417 93.9978C387.084 91.4865 385.917 88.4676 385.917 84.9412V20.8235C385.917 17.2971 387.084 14.2782 389.417 11.7669C391.751 9.25564 394.556 8 397.833 8H493.167C496.444 8 499.249 9.25564 501.583 11.7669C503.916 14.2782 505.083 17.2971 505.083 20.8235V84.9412C505.083 88.4676 503.916 91.4865 501.583 93.9978C499.249 96.5091 496.444 97.7647 493.167 97.7647V104.176H517V117H374ZM397.833 84.9412H493.167V20.8235H397.833V84.9412Z" fill="#FEFEFE"/>
</g>
</g>
<defs>
<clipPath id="clip0_2_3">
<rect width="531" height="130" fill="white"/>
</clipPath>
<clipPath id="clip1_2_3">
<rect width="143" height="109" fill="white" transform="translate(374 8)"/>
</clipPath>
</defs>
</svg>
